ffmpeg version 3.4.2-tessus Copyright (c) 2000-2018 the FFmpeg developers
  built with Apple LLVM version 9.0.0 (clang-900.0.39.2)
  configuration: --cc=/usr/bin/clang --prefix=/opt/ffmpeg --extra-version=tessus --enable-avisynth --enable-fontconfig --enable-gpl --enable-libass --enable-libbluray --enable-libfreetype --enable-libgsm --enable-libmodplug --enable-libmp3lame --enable-libopencore-amrnb --enable-libopencore-amrwb --enable-libopus --enable-libsnappy --enable-libsoxr --enable-libspeex --enable-libtheora --enable-libvidstab --enable-libvo-amrwbenc --enable-libvorbis --enable-libvpx --enable-libwavpack --enable-libx264 --enable-libx265 --enable-libxavs --enable-libxvid --enable-libzmq --enable-libzvbi --enable-version3 --pkg-config-flags=--static --disable-ffplay
  libavutil      55. 78.100 / 55. 78.100
  libavcodec     57.107.100 / 57.107.100
  libavformat    57. 83.100 / 57. 83.100
  libavdevice    57. 10.100 / 57. 10.100
  libavfilter     6.107.100 /  6.107.100
  libswscale      4.  8.100 /  4.  8.100
  libswresample   2.  9.100 /  2.  9.100
  libpostproc    54.  7.100 / 54.  7.100
Input #0, mov,mp4,m4a,3gp,3g2,mj2, from '/Users/rayct/Documents/Projects/ellatronix.com/ellatronix.com/startbootstrap-coming-soon-gh-pages/backup_videos/bg1.mov':
  Metadata:
    major_brand     : qt  
    minor_version   : 537199360
    compatible_brands: qt  
    creation_time   : 2009-03-28T10:27:23.000000Z
  Duration: 00:00:06.63, start: 0.000000, bitrate: 39128 kb/s
    Stream #0:0(eng): Video: h264 (Main) (avc1 / 0x31637661), yuv420p(tv, bt709), 1920x1080, 39126 kb/s, 30 fps, 30 tbr, 600 tbn, 1200 tbc (default)
    Metadata:
      creation_time   : 2009-03-28T10:29:04.000000Z
      handler_name    : Apple Alias Data Handler
      encoder         : H.264
Output #0, mp4, to '/Users/rayct/Documents/Projects/ellatronix.com/ellatronix.com/startbootstrap-coming-soon-gh-pages/backup_videos/bg1.conv.mp4':
  Metadata:
    major_brand     : qt  
    minor_version   : 537199360
    compatible_brands: qt  
    media_type      : 9
    encoder         : Lavf57.83.100
    Stream #0:0(eng): Video: h264 (Main) (avc1 / 0x31637661), yuv420p(tv, bt709), 1920x1080, q=2-31, 39126 kb/s, 30 fps, 30 tbr, 19200 tbn, 600 tbc (default)
    Metadata:
      creation_time   : 2009-03-28T10:29:04.000000Z
      encoder         : H.264
      handler_name    : Apple Alias Data Handler
      title           : Video Track
Stream mapping:
  Stream #0:0 -> #0:0 (copy)
Press [q] to stop, [?] for help
frame=  199 fps=0.0 q=-1.0 Lsize=   31684kB time=00:00:06.60 bitrate=39326.2kbits/s speed=45.7x    
video:31682kB audio:0kB subtitle:0kB other streams:0kB global headers:0kB muxing overhead: 0.005628%
